Coordinates
version=1
nRows=12
nColumns=32
inDegrees=yes

Units are S.I. units (second, meters, Newtons, ...)
If the header above contains a line with 'inDegrees', this indicates whether rotational values are in degrees (yes) or radians (no).

endheader
time	pelvis_tilt	pelvis_list	pelvis_rotation	pelvis_tx	pelvis_ty	pelvis_tz	hip_flexion_r	hip_adduction_r	hip_rotation_r	knee_angle_r	knee_adduction_r	med_cond_adduction_r	lat_cond_adduction_r	patella_r_constrained_knee_angle	ankle_angle_r	subtalar_angle_r	mtp_angle_r	hip_flexion_l	hip_adduction_l	hip_rotation_l	knee_angle_l	knee_adduction_l	med_cond_adduction_l	lat_cond_adduction_l	patella_l_constrained_knee_angle	ankle_angle_l	subtalar_angle_l	mtp_angle_l	lumbar_extension	lumbar_bending	lumbar_rotation
      0.00500000	      1.87778502	      3.75293155	     -2.46203178	      0.26748929	      0.91600960	     -1.21500112	     -1.76587247	    -24.78923141	    -32.43428982	     -7.56432730	      3.49016789	      0.00000000	      0.00000000	     -0.13202242	     -6.35688905	      8.41398383	     -0.00000000	     -2.33769086	    -13.60498728	    -38.09791224	     -5.22402879	     -0.65657344	      0.00000000	      0.00000000	     -0.09117650	     -6.74340695	     17.08804039	      0.00000000	     -3.11895154	     -1.92240611	      0.87284353
      0.01000000	      1.89028522	      3.68158615	     -2.43704332	      0.26745723	      0.91606183	     -1.21500018	     -1.81680576	    -24.65963113	    -32.43700971	     -7.47086382	      3.44794424	      0.00000000	      0.00000000	     -0.13039117	     -6.43925047	      8.33155042	      0.00000000	     -2.33663216	    -13.71907130	    -38.08570677	     -5.27937289	     -0.62075791	      0.00000000	      0.00000000	     -0.09214244	     -6.70725038	     17.11113793	      0.00000000	     -3.14456912	     -1.87679180	      0.79588480
      0.01500000	      1.85795051	      3.83942083	     -2.40979331	      0.26747518	      0.91595836	     -1.21511831	     -1.77929283	    -24.92264984	    -32.50327927	     -7.58803352	      3.56543571	      0.00000000	      0.00000000	     -0.13243617	     -6.34912037	      8.34738226	     -0.00000000	     -2.28457662	    -13.48958209	    -38.04461366	     -5.21022255	     -0.69744163	      0.00000000	      0.00000000	     -0.09093554	     -6.76371524	     17.11181646	     -0.00000000	     -3.10044663	     -2.02732081	      0.84642648
      0.02000000	      1.88677797	      3.67884000	     -2.43150480	      0.26739931	      0.91605819	     -1.21500633	     -1.81508808	    -24.65519159	    -32.44286467	     -7.46104384	      3.45311784	      0.00000000	     -0.00000000	     -0.13021978	     -6.45056336	      8.30529596	     -0.00000000	     -2.32345644	    -13.72569763	    -38.08086674	     -5.29038113	     -0.61955205	     -0.00000000	     -0.00000000	     -0.09233457	     -6.70143828	     17.11407129	      0.00000000	     -3.15002684	     -1.88719064	      0.77569533
      0.02500000	      1.86770608	      3.82472631	     -2.40914282	      0.26739185	      0.91598415	     -1.21512028	     -1.79180958	    -24.89805310	    -32.49305089	     -7.56201200	      3.56658074	      0.00000000	      0.00000000	     -0.13198201	     -6.39562703	      8.29091495	     -0.00000000	     -2.29075273	    -13.51496069	    -38.04980120	     -5.21922703	     -0.67924660	      0.00000000	      0.00000000	     -0.09109270	     -6.76935548	     17.09905206	      0.00000000	     -3.12392472	     -2.01597068	      0.83881783
      0.03000000	      1.88848641	      3.68312057	     -2.43735789	      0.26733196	      0.91605814	     -1.21499173	     -1.80419301	    -24.67271310	    -32.44906522	     -7.48260293	      3.47259846	      0.00000000	      0.00000000	     -0.13059606	     -6.45626844	      8.27002624	     -0.00000000	     -2.33147541	    -13.72250777	    -38.07238662	     -5.27899678	     -0.60040522	     -0.00000000	     -0.00000000	     -0.09213588	     -6.70191614	     17.07730883	      0.00000000	     -3.16357531	     -1.89934632	      0.78629766
      0.03500000	      1.85101397	      3.85869861	     -2.41144280	      0.26731813	      0.91594183	     -1.21512270	     -1.75162795	    -24.95246981	    -32.50430729	     -7.60322774	      3.57356529	      0.00000000	      0.00000000	     -0.13270136	     -6.34155651	      8.34894618	      0.00000000	     -2.25934236	    -13.46535004	    -38.04317766	     -5.21664831	     -0.70510907	     -0.00000000	     -0.00000000	     -0.09104769	     -6.76089828	     17.10156617	      0.00000000	     -3.11478639	     -2.05667055	      0.85979376
      0.04000000	      1.84959662	      3.85282838	     -2.39916827	      0.26727351	      0.91594716	     -1.21515379	     -1.75370036	    -24.96189144	    -32.54329197	     -7.62441001	      3.60195524	      0.00000000	      0.00000000	     -0.13307106	     -6.30907623	      8.38063512	      0.00000000	     -2.25331465	    -13.48042976	    -38.03660797	     -5.22414772	     -0.68068869	      0.00000000	      0.00000000	     -0.09117858	     -6.75785452	     17.09097873	      0.00000000	     -3.12101305	     -2.04555437	      0.83810997
      0.04500000	      1.87858088	      3.74443239	     -2.41770025	      0.26719962	      0.91604094	     -1.21505748	     -1.79828395	    -24.75562906	    -32.44811319	     -7.48349118	      3.50871592	      0.00000000	      0.00000000	     -0.13061156	     -6.46348056	      8.21178680	     -0.00000000	     -2.28417080	    -13.63091239	    -38.05219260	     -5.27536410	     -0.65829890	     -0.00000000	     -0.00000000	     -0.09207247	     -6.73362112	     17.10246556	     -0.00000000	     -3.17753779	     -1.98796340	      0.74909612
      0.05000000	      1.86956548	      3.73928901	     -2.43618984	      0.26715021	      0.91601706	     -1.21501584	     -1.76033814	    -24.75424089	    -32.44363190	     -7.51145668	      3.49506464	      0.00000000	      0.00000000	     -0.13109965	     -6.42414820	      8.27712404	      0.00000000	     -2.28050513	    -13.64495118	    -38.07012657	     -5.28046754	     -0.64085504	     -0.00000000	     -0.00000000	     -0.09216154	     -6.71119321	     17.08715808	     -0.00000000	     -3.17297333	     -1.97404910	      0.79557591
      0.05500000	      1.87344668	      3.72478359	     -2.44211692	      0.26709847	      0.91602123	     -1.21498655	     -1.75851890	    -24.73094130	    -32.43940864	     -7.50442551	      3.48917937	     -0.00000000	     -0.00000000	     -0.13097693	     -6.42489836	      8.25662925	     -0.00000000	     -2.28903435	    -13.66718875	    -38.07973430	     -5.27419820	     -0.62736164	     -0.00000000	     -0.00000000	     -0.09205212	     -6.74049660	     17.08952225	      0.00000000	     -3.18217916	     -1.98241427	      0.76917433
      0.06000000	      1.87025974	      3.70338904	     -2.44096670	      0.26706416	      0.91603105	     -1.21498016	     -1.75636316	    -24.69736114	    -32.43595585	     -7.48600949	      3.47815497	     -0.00000000	      0.00000000	     -0.13065551	     -6.43634194	      8.25717694	     -0.00000000	     -2.27961750	    -13.69841438	    -38.07447548	     -5.29449785	     -0.62287976	      0.00000000	      0.00000000	     -0.09240642	     -6.70984561	     17.09525287	      0.00000000	     -3.19109072	     -1.94311436	      0.79995020
